# xmcd CD database file
#
# Track frame offsets:
#	182
#	15835
#	26032
#	41145
#	54520
#	64447
#	78212
#	93907
#	104730
#	115605
#	129535
#	141382
#	153232
#	168182
#	179087
#	193552
#	206332
#	216482
#	226522
#	242307
#	254567
#	268317
#	279117
#	291875
#	302550
#	314030
#
# Disc length: 4355 seconds
#
# Revision: 2
# Processed by: cddbd v1.5.2PL0 Copyright (c) Steve Scherf et al.
# Submitted via: CDex 1.70beta2
#
DISCID=7511011a
DTITLE=Garnet Mimms - Cry Baby - Warm And Soulful
DYEAR=1995
DGENRE=Soul
TTITLE0=Cry Baby (Russell-Maede)
TTITLE1=Nobody But You (D.Clark)
TTITLE2=Until You Were Gone (J.Byers)
TTITLE3=Anytime You Want Me (Maede-Mimms)
TTITLE4=So Close (Bell-Maede)
TTITLE5=For Your Precious Love (Brooks-Butler)
TTITLE6=Baby Don´t You Weep (Maede)
TTITLE7=A Quiet Place (Bell-Maede)
TTITLE8=Cry To Me (B.Russell)
TTITLE9=Don´t Change Your Heart (S.Bell)
TTITLE10=Wanting You (Kaye-Springer)
TTITLE11=The Truth Hurts (Diamond-Radcliffe)
TTITLE12=I´ll Take Good Care Of You (Berns-Ragovoy)
TTITLE13=Looking For You (Ragovoy)
TTITLE14=It Won´t Hurt (Half As Much) (Berns)
TTITLE15=It Was Easier To Hurt Her (Russell-Ragovoy)
TTITLE16=Thinkin´(Taylorl-Ragovoy)
TTITLE17=Prove It To Me (Marshall-Ragovoy)
TTITLE18=More Than A Miracle (Pomus-Ragovoy)
TTITLE19=As Long As I Have You (Elgin-Ragovoy)
TTITLE20=One Girl (Maede-Russell)
TTITLE21=There Goes My Baby (Nelson-Patterson-Treadwell)
TTITLE22=It´s Just A Matter Of Time (Benton-Hendricks-Otis)
TTITLE23=A Little Bit Of Soap (Russell)
TTITLE24=Look Away (Maede-Russell)
TTITLE25=I´ll Make It Up To You ((Raleigh-Ragovoy)
EXTD=YEAR: 1995
EXTT0=Yesterday: 15.09.1995
EXTT1=Yesterday: 13.10.1995
EXTT2=
EXTT3=
EXTT4=
EXTT5=Yesterday: 10.11.1995
EXTT6=
EXTT7=
EXTT8=
EXTT9=
EXTT10=
EXTT11=
EXTT12=
EXTT13=
EXTT14=
EXTT15=
EXTT16=
EXTT17=
EXTT18=
EXTT19=
EXTT20=
EXTT21=
EXTT22=
EXTT23=
EXTT24=
EXTT25=
PLAYORDER=
